<?xml version="1.0" encoding="UTF-8"?>
<svg id="Layer_1" data-name="Layer 1" xmlns="http://www.w3.org/2000/svg" viewBox="0 0 530.25 530.68">
  <defs>
    <style>
      .cls-1 {
        fill: #04989f;
      }
    </style>
  </defs>
  <path class="cls-1" d="M82.93,1c42.86-2.61,83.8,28.41,91.26,70.81,3.56,20.26.5,34.25,9.85,54.55,30.43,66.03,124.51,68.53,159.28,5.05,21.02-38.38-.75-73.57,40.77-109.11,84.05-71.95,196.89,46.35,121.22,127.08-27.98,29.85-53.82,24.61-90.17,28.1-115.06,11.04-212.54,99.5-234.44,212.87-10.08,52.19,4.63,103.08-54.96,131.22-93.26,44.03-171.79-82.19-94.11-146.8,34.56-28.75,68.76-12,104.14-34.04,56.83-35.41,54.33-120.06-3.8-152.92-34.14-19.3-65.57-3.17-99.7-31.45C-28.85,105.7,3.5,5.83,82.93,1Z"/>
  <path class="cls-1" d="M374.49,244.55c113.63-8.47,192.17,110.51,137.44,211.21-50.28,92.51-182.05,99.91-242.37,13.63-63.01-90.12-4.64-216.68,104.93-224.85Z"/>
</svg>