<svg preserveAspectRatio="none" width="100%" height="100%" overflow="visible" style="display: block;" viewBox="0 0 20 20" fill="none" xmlns="http://www.w3.org/2000/svg">
<g id="Icon">
<path id="Vector" d="M10 6.66667C11.3807 6.66667 12.5 5.54738 12.5 4.16667C12.5 2.78595 11.3807 1.66667 10 1.66667C8.61929 1.66667 7.5 2.78595 7.5 4.16667C7.5 5.54738 8.61929 6.66667 10 6.66667Z" stroke="var(--stroke-0, #51A2FF)" stroke-width="1.66667" stroke-linecap="round" stroke-linejoin="round"/>
<path id="Vector_2" d="M5.41667 6.66667C5.05605 6.67041 4.70637 6.79102 4.42013 7.0104C4.13388 7.22978 3.92652 7.53608 3.82917 7.88333L1.75 15.4167C1.687 15.6605 1.68007 15.9154 1.72974 16.1623C1.7794 16.4092 1.88436 16.6416 2.03674 16.8421C2.18911 17.0426 2.38494 17.2059 2.60951 17.3199C2.83408 17.4338 3.08155 17.4954 3.33333 17.5H16.6667C16.9239 17.4999 17.1776 17.4403 17.4079 17.3258C17.6383 17.2113 17.839 17.045 17.9944 16.84C18.1497 16.635 18.2555 16.3968 18.3035 16.1441C18.3515 15.8914 18.3403 15.631 18.2708 15.3833L16.1667 7.91667C16.0749 7.56118 15.8683 7.24594 15.579 7.0199C15.2897 6.79387 14.9338 6.6697 14.5667 6.66667H5.41667Z" stroke="var(--stroke-0, #51A2FF)" stroke-width="1.66667" stroke-linecap="round" stroke-linejoin="round"/>
</g>
</svg>
