<svg preserveAspectRatio="none" width="100%" height="100%" overflow="visible" style="display: block;" viewBox="0 0 22 22" fill="none" xmlns="http://www.w3.org/2000/svg">
<g id="Group">
<path id="Vector" d="M11 1L8 4H4V8L1 11L4 14V18H8L11 21L14 18H18V14L21 11L18 8V4H14L11 1Z" stroke="var(--stroke-0, #F6F6F6)" stroke-width="2" stroke-linejoin="round"/>
<path id="Vector_2" d="M11 14C11.7956 14 12.5587 13.6839 13.1213 13.1213C13.6839 12.5587 14 11.7956 14 11C14 10.2044 13.6839 9.44129 13.1213 8.87868C12.5587 8.31607 11.7956 8 11 8C10.2044 8 9.44129 8.31607 8.87868 8.87868C8.31607 9.44129 8 10.2044 8 11C8 11.7956 8.31607 12.5587 8.87868 13.1213C9.44129 13.6839 10.2044 14 11 14Z" stroke="var(--stroke-0, #F6F6F6)" stroke-width="2" stroke-linejoin="round"/>
</g>
</svg>
