<svg preserveAspectRatio="none" width="100%" height="100%" overflow="visible" style="display: block;" viewBox="0 0 13.9231 2.4375" fill="none" xmlns="http://www.w3.org/2000/svg">
<g id="Group">
<path id="Vector" d="M1.21875 1.21875H1.23313V1.23313H1.21875V1.21875Z" stroke="var(--stroke-0, #F6F6F6)" stroke-linecap="round" stroke-linejoin="round"/>
<path id="Vector_2" d="M1.9375 1.21875C1.9375 1.40937 1.86177 1.59219 1.72698 1.72698C1.59219 1.86178 1.40937 1.9375 1.21875 1.9375C1.02813 1.9375 0.845309 1.86178 0.710517 1.72698C0.575725 1.59219 0.5 1.40937 0.5 1.21875C0.5 1.02813 0.575725 0.845309 0.710517 0.710517C0.845309 0.575725 1.02813 0.5 1.21875 0.5C1.40937 0.5 1.59219 0.575725 1.72698 0.710517C1.86177 0.845309 1.9375 1.02813 1.9375 1.21875ZM6.96875 1.21875H6.98313V1.23313H6.96875V1.21875Z" stroke="var(--stroke-0, #F6F6F6)" stroke-linecap="round" stroke-linejoin="round"/>
<path id="Vector_3" d="M7.6875 1.21875C7.6875 1.40937 7.61178 1.59219 7.47698 1.72698C7.34219 1.86178 7.15937 1.9375 6.96875 1.9375C6.77813 1.9375 6.59531 1.86178 6.46052 1.72698C6.32573 1.59219 6.25 1.40937 6.25 1.21875C6.25 1.02813 6.32573 0.845309 6.46052 0.710517C6.59531 0.575725 6.77813 0.5 6.96875 0.5C7.15937 0.5 7.34219 0.575725 7.47698 0.710517C7.61178 0.845309 7.6875 1.02813 7.6875 1.21875ZM12.7044 1.21875H12.7188V1.23313H12.7044V1.21875Z" stroke="var(--stroke-0, #F6F6F6)" stroke-linecap="round" stroke-linejoin="round"/>
<path id="Vector_4" d="M13.4231 1.21875C13.4231 1.40937 13.3474 1.59219 13.2126 1.72698C13.0778 1.86178 12.895 1.9375 12.7044 1.9375C12.5137 1.9375 12.3309 1.86178 12.1961 1.72698C12.0614 1.59219 11.9856 1.40937 11.9856 1.21875C11.9856 1.02813 12.0614 0.845309 12.1961 0.710517C12.3309 0.575725 12.5137 0.5 12.7044 0.5C12.895 0.5 13.0778 0.575725 13.2126 0.710517C13.3474 0.845309 13.4231 1.02813 13.4231 1.21875Z" stroke="var(--stroke-0, #F6F6F6)" stroke-linecap="round" stroke-linejoin="round"/>
</g>
</svg>
