<svg preserveAspectRatio="none" width="100%" height="100%" overflow="visible" style="display: block;" viewBox="0 0 17.999 22" fill="none" xmlns="http://www.w3.org/2000/svg">
<g id="Group">
<path id="Vector" d="M11.9998 18C11.9998 18.7956 11.6838 19.5587 11.1211 20.1213C10.5585 20.6839 9.79548 21 8.99983 21C8.20418 21 7.44112 20.6839 6.87851 20.1213C6.3159 19.5587 5.99983 18.7956 5.99983 18M9.72083 4.003L8.25483 4C4.91083 3.992 2.00783 6.709 1.98483 10V13.79C1.98483 14.58 1.88483 15.351 1.45383 16.008L1.16683 16.446C0.729828 17.11 1.19983 18 1.98483 18H16.0148C16.7998 18 17.2688 17.11 16.8328 16.446L16.5458 16.008C16.1158 15.351 16.0148 14.579 16.0148 13.789V10.001C15.9748 6.709 13.0648 4.011 9.72083 4.003Z" stroke="var(--stroke-0, #F6F6F6)" stroke-width="2" stroke-linecap="round" stroke-linejoin="round"/>
<path id="Vector_2" d="M8.99983 1C9.53026 1 10.039 1.21071 10.414 1.58579C10.7891 1.96086 10.9998 2.46957 10.9998 3V4H6.99983V3C6.99983 2.46957 7.21054 1.96086 7.58562 1.58579C7.96069 1.21071 8.4694 1 8.99983 1Z" stroke="var(--stroke-0, #F6F6F6)" stroke-width="2" stroke-linecap="round" stroke-linejoin="round"/>
</g>
</svg>
