<svg preserveAspectRatio="none" width="100%" height="100%" overflow="visible" style="display: block;" viewBox="0 0 20 22" fill="none" xmlns="http://www.w3.org/2000/svg">
<path id="Vector" d="M13.95 19.65L15.1 18.5L13.5 16.9L12.35 18.05C12.1167 18.2833 12 18.55 12 18.85C12 19.15 12.1167 19.4167 12.35 19.65C12.5833 19.8833 12.85 20 13.15 20C13.45 20 13.7167 19.8833 13.95 19.65ZM16.5 17.1L17.65 15.95C17.8833 15.7167 18 15.45 18 15.15C18 14.85 17.8833 14.5833 17.65 14.35C17.4167 14.1167 17.15 14 16.85 14C16.55 14 16.2833 14.1167 16.05 14.35L14.9 15.5L16.5 17.1ZM15.375 21.075C14.7583 21.6917 14.0167 22 13.15 22C12.2833 22 11.5417 21.6917 10.925 21.075C10.3083 20.4583 10 19.7167 10 18.85C10 17.9833 10.3083 17.2417 10.925 16.625L14.625 12.925C15.2417 12.3083 15.9833 12 16.85 12C17.7167 12 18.4583 12.3083 19.075 12.925C19.6917 13.5417 20 14.2833 20 15.15C20 16.0167 19.6917 16.7583 19.075 17.375L15.375 21.075ZM2 20C1.45 20 0.979333 19.8043 0.588 19.413C0.196667 19.0217 0.000666667 18.5507 0 18V4C0 3.45 0.196 2.97933 0.588 2.588C0.98 2.19667 1.45067 2.00067 2 2H6.2C6.41667 1.4 6.77933 0.916667 7.288 0.55C7.79667 0.183333 8.36733 0 9 0C9.63267 0 10.2037 0.183333 10.713 0.55C11.2223 0.916667 11.5847 1.4 11.8 2H16C16.55 2 17.021 2.196 17.413 2.588C17.805 2.98 18.0007 3.45067 18 4V10.125C17.6667 10.0417 17.3333 10 17 10C16.6667 10 16.3333 10.025 16 10.075V4H2V18H8.075C8.025 18.3333 8 18.6667 8 19C8 19.3333 8.04167 19.6667 8.125 20H2ZM9.538 3.037C9.67933 2.89567 9.75 2.71667 9.75 2.5C9.75 2.28333 9.679 2.10433 9.537 1.963C9.395 1.82167 9.216 1.75067 9 1.75C8.784 1.74933 8.605 1.82033 8.463 1.963C8.321 2.10567 8.25 2.28467 8.25 2.5C8.25 2.71533 8.321 2.89467 8.463 3.038C8.605 3.18133 8.784 3.252 9 3.25C9.216 3.248 9.39533 3.177 9.538 3.037ZM4 8V6H14V8H4ZM4 12V10H14V10.85C13.8667 10.9333 13.7377 11.0293 13.613 11.138C13.4883 11.2467 13.359 11.3673 13.225 11.5L12.725 12H4ZM4 16V14H10.725L9.5 15.225C9.36667 15.3583 9.246 15.4877 9.138 15.613C9.03 15.7383 8.934 15.8673 8.85 16H4Z" fill="var(--fill-0, #F6F6F6)"/>
</svg>
