<svg preserveAspectRatio="none" width="100%" height="100%" overflow="visible" style="display: block;" viewBox="0 0 20 20" fill="none" xmlns="http://www.w3.org/2000/svg">
<g id="Icon">
<path id="Vector" d="M15.8333 2.5H4.16667C3.24619 2.5 2.5 3.24619 2.5 4.16667V15.8333C2.5 16.7538 3.24619 17.5 4.16667 17.5H15.8333C16.7538 17.5 17.5 16.7538 17.5 15.8333V4.16667C17.5 3.24619 16.7538 2.5 15.8333 2.5Z" stroke="var(--stroke-0, #00D3F2)" stroke-width="1.66667" stroke-linecap="round" stroke-linejoin="round"/>
<path id="Vector_2" d="M7.5 9.16667C8.42047 9.16667 9.16667 8.42047 9.16667 7.5C9.16667 6.57953 8.42047 5.83333 7.5 5.83333C6.57953 5.83333 5.83333 6.57953 5.83333 7.5C5.83333 8.42047 6.57953 9.16667 7.5 9.16667Z" stroke="var(--stroke-0, #00D3F2)" stroke-width="1.66667" stroke-linecap="round" stroke-linejoin="round"/>
<path id="Vector_3" d="M17.5 12.5L14.9283 9.92833C14.6158 9.61588 14.1919 9.44036 13.75 9.44036C13.3081 9.44036 12.8842 9.61588 12.5717 9.92833L5 17.5" stroke="var(--stroke-0, #00D3F2)" stroke-width="1.66667" stroke-linecap="round" stroke-linejoin="round"/>
</g>
</svg>
