<svg preserveAspectRatio="none" width="100%" height="100%" overflow="visible" style="display: block;" viewBox="0 0 20 20" fill="none" xmlns="http://www.w3.org/2000/svg">
<g id="Icon">
<path id="Vector" d="M8.05917 3.44667C8.10508 2.96362 8.32944 2.51504 8.68842 2.18857C9.04739 1.8621 9.51519 1.68119 10.0004 1.68119C10.4856 1.68119 10.9534 1.8621 11.3124 2.18857C11.6714 2.51504 11.8958 2.96362 11.9417 3.44667C11.9693 3.75871 12.0716 4.05952 12.2401 4.32362C12.4086 4.58772 12.6382 4.80734 12.9096 4.9639C13.1809 5.12045 13.486 5.20933 13.7989 5.22302C14.1119 5.2367 14.4235 5.17478 14.7075 5.0425C15.1484 4.84232 15.6481 4.81335 16.1092 4.96124C16.5703 5.10913 16.9599 5.42329 17.2021 5.84259C17.4443 6.26188 17.5219 6.75631 17.4197 7.22964C17.3175 7.70297 17.0428 8.12135 16.6492 8.40333C16.3928 8.58321 16.1836 8.82217 16.0391 9.10002C15.8946 9.37787 15.8192 9.68642 15.8192 9.99958C15.8192 10.3127 15.8946 10.6213 16.0391 10.8991C16.1836 11.177 16.3928 11.416 16.6492 11.5958C17.0428 11.8778 17.3175 12.2962 17.4197 12.7695C17.5219 13.2429 17.4443 13.7373 17.2021 14.1566C16.9599 14.5759 16.5703 14.89 16.1092 15.0379C15.6481 15.1858 15.1484 15.1569 14.7075 14.9567C14.4235 14.8244 14.1119 14.7625 13.7989 14.7761C13.486 14.7898 13.1809 14.8787 12.9096 15.0353C12.6382 15.1918 12.4086 15.4114 12.2401 15.6755C12.0716 15.9396 11.9693 16.2405 11.9417 16.5525C11.8958 17.0356 11.6714 17.4841 11.3124 17.8106C10.9534 18.1371 10.4856 18.318 10.0004 18.318C9.51519 18.318 9.04739 18.1371 8.68842 17.8106C8.32944 17.4841 8.10508 17.0356 8.05917 16.5525C8.03162 16.2403 7.92925 15.9394 7.76072 15.6752C7.59219 15.411 7.36248 15.1913 7.09103 15.0348C6.81958 14.8782 6.51439 14.7893 6.20132 14.7758C5.88824 14.7622 5.5765 14.8242 5.2925 14.9567C4.85157 15.1569 4.35194 15.1858 3.89083 15.0379C3.42973 14.89 3.04014 14.5759 2.7979 14.1566C2.55566 13.7373 2.4781 13.2429 2.5803 12.7695C2.6825 12.2962 2.95717 11.8778 3.35083 11.5958C3.60718 11.416 3.81644 11.177 3.96091 10.8991C4.10537 10.6213 4.1808 10.3127 4.1808 9.99958C4.1808 9.68642 4.10537 9.37787 3.96091 9.10002C3.81644 8.82217 3.60718 8.58321 3.35083 8.40333C2.95772 8.1212 2.68354 7.703 2.58158 7.22998C2.47963 6.75697 2.55717 6.26295 2.79915 5.84393C3.04113 5.4249 3.43026 5.11081 3.89091 4.9627C4.35156 4.81459 4.85082 4.84303 5.29167 5.0425C5.57563 5.17478 5.88729 5.2367 6.20025 5.22302C6.51322 5.20933 6.81828 5.12045 7.08961 4.9639C7.36095 4.80734 7.59058 4.58772 7.75905 4.32362C7.92753 4.05952 8.0299 3.75871 8.0575 3.44667" stroke="var(--stroke-0, #90A1B9)" stroke-width="1.66667" stroke-linecap="round" stroke-linejoin="round"/>
<path id="Vector_2" d="M10 12.5C11.3807 12.5 12.5 11.3807 12.5 10C12.5 8.61929 11.3807 7.5 10 7.5C8.61929 7.5 7.5 8.61929 7.5 10C7.5 11.3807 8.61929 12.5 10 12.5Z" stroke="var(--stroke-0, #90A1B9)" stroke-width="1.66667" stroke-linecap="round" stroke-linejoin="round"/>
</g>
</svg>
