<svg preserveAspectRatio="none" width="100%" height="100%" overflow="visible" style="display: block;" viewBox="0 0 11.4641 11.5" fill="none" xmlns="http://www.w3.org/2000/svg">
<path id="Vector" d="M10.0266 1.4375H0.71875C0.528126 1.4375 0.345309 1.36177 0.210517 1.22698C0.0757254 1.09219 0 0.909374 0 0.71875C0 0.528126 0.0757254 0.345309 0.210517 0.210517C0.345309 0.0757254 0.528126 0 0.71875 0H10.7453C10.9359 0 11.1188 0.0757254 11.2535 0.210517C11.3883 0.345309 11.4641 0.528126 11.4641 0.71875V10.7812C11.4641 10.9719 11.3883 11.1547 11.2535 11.2895C11.1188 11.4243 10.9359 11.5 10.7453 11.5C10.5547 11.5 10.3719 11.4243 10.2371 11.2895C10.1023 11.1547 10.0266 10.9719 10.0266 10.7812V1.4375Z" fill="var(--fill-0, #F6F6F6)"/>
</svg>
