<svg preserveAspectRatio="none" width="100%" height="100%" overflow="visible" style="display: block;" viewBox="0 0 20 20" fill="none" xmlns="http://www.w3.org/2000/svg">
<g id="Icon" clip-path="url(#clip0_30_1043)">
<path id="Vector" d="M17.75 12.75C17.9365 12.9358 18.0844 13.1566 18.1853 13.3997C18.2863 13.6428 18.3382 13.9034 18.3382 14.1667C18.3382 14.4299 18.2863 14.6905 18.1853 14.9336C18.0844 15.1767 17.9365 15.3975 17.75 15.5833L15.5833 17.75C15.3975 17.9365 15.1767 18.0844 14.9336 18.1853C14.6905 18.2863 14.4299 18.3382 14.1667 18.3382C13.9034 18.3382 13.6428 18.2863 13.3997 18.1853C13.1566 18.0844 12.9358 17.9365 12.75 17.75L2.25 7.25C1.87546 6.87365 1.6652 6.36429 1.6652 5.83333C1.6652 5.30237 1.87546 4.79302 2.25 4.41667L4.41667 2.25C4.79302 1.87546 5.30237 1.6652 5.83333 1.6652C6.36429 1.6652 6.87365 1.87546 7.25 2.25L17.75 12.75Z" stroke="var(--stroke-0, #00D3F2)" stroke-width="1.66667" stroke-linecap="round" stroke-linejoin="round"/>
<path id="Vector_2" d="M12.0833 10.4167L13.75 8.75" stroke="var(--stroke-0, #00D3F2)" stroke-width="1.66667" stroke-linecap="round" stroke-linejoin="round"/>
<path id="Vector_3" d="M9.58333 7.91667L11.25 6.25" stroke="var(--stroke-0, #00D3F2)" stroke-width="1.66667" stroke-linecap="round" stroke-linejoin="round"/>
<path id="Vector_4" d="M7.08333 5.41667L8.75 3.75" stroke="var(--stroke-0, #00D3F2)" stroke-width="1.66667" stroke-linecap="round" stroke-linejoin="round"/>
<path id="Vector_5" d="M14.5833 12.9167L16.25 11.25" stroke="var(--stroke-0, #00D3F2)" stroke-width="1.66667" stroke-linecap="round" stroke-linejoin="round"/>
</g>
<defs>
<clipPath id="clip0_30_1043">
<rect width="20" height="20" fill="white"/>
</clipPath>
</defs>
</svg>
