<?xml version="1.0" encoding="UTF-8"?>
<svg id="Layer_1" data-name="Layer 1" xmlns="http://www.w3.org/2000/svg" viewBox="0 0 2432.83 905.94">
  <defs>
    <style>
      .cls-1 {
        fill: #04989f;
      }
    </style>
  </defs>
  <path class="cls-1" d="M135.34,21.56c69.95-4.25,136.77,46.36,148.94,115.56,5.81,33.06.81,55.9,16.08,89.03,49.67,107.76,203.2,111.84,259.95,8.24,34.31-62.63-1.22-120.07,66.54-178.07,137.18-117.43,321.34,75.64,197.84,207.4-45.67,48.72-87.84,40.16-147.16,45.85-187.78,18.01-346.87,162.39-382.62,347.41-16.46,85.18,7.56,168.24-89.7,214.16-152.21,71.86-280.37-134.13-153.59-239.59,56.4-46.91,112.23-19.58,169.96-55.55,92.75-57.78,88.66-195.94-6.21-249.57-55.72-31.5-107.01-5.17-162.71-51.33C-47.08,192.44,5.72,29.44,135.34,21.56Z"/>
  <path class="cls-1" d="M611.19,419.04c185.45-13.83,313.64,180.36,224.32,344.71-82.05,150.98-297.12,163.06-395.56,22.25-102.83-147.08-7.57-353.63,171.25-366.96Z"/>
  <path class="cls-1" d="M1228.86,410.84h-44.91l-23.67-65.75-118.78-.26-22.85,66.01h-45.87l102.45-284.87,51.42,2,102.21,282.87ZM1146.68,309.55l-47.75-131.86-43.98,131.86h91.73Z"/>
  <path class="cls-1" d="M1297.66,126.09v116.57c3.57.8,3.71-1.19,5.42-3.18,18.26-21.29,31.22-33.19,62.22-32.94,119.43.98,115.6,221.86-11.03,209.79-26.09-2.49-37.16-12.33-52.23-31.75-1.23-1.59.06-3.47-4.38-2.41v28.67h-40.13V126.09h40.13ZM1348.83,239.38c-66.31,6.36-66.88,127.99-11.89,142.68,94.56,25.26,99.16-151.05,11.89-142.68Z"/>
  <path class="cls-1" d="M1926.4,273.24c3.74-38.31,29.41-59.18,66.17-64.74,43.81-6.62,97.58,5.71,102.08,57.98,1.76,20.42-4.68,103.16,4.53,113.95,3.51,4.1,7.53,3.96,12.6,3.65l-.83,26.88c-28.23,7.93-44.12,2.17-52.65-26-.64-2.12,1.32-3.41-2.88-2.78-34.17,53.44-144.9,46.66-136.45-31.35,5.66-52.28,75.75-49.49,112.55-59.43,13.61-3.67,25.61-7.73,24.71-24.58-1.68-31.41-47.98-33.52-69.39-23.92-15.57,6.98-15.46,15.93-21.27,30.33h-39.18ZM2056.35,309.55c-28.98,15.9-110.43,4.38-96.57,57.39,5.93,22.67,41.01,22.36,58.77,16.61,13.05-4.23,37.8-23.95,37.8-38.65v-35.35Z"/>
  <path class="cls-1" d="M1637.83,269.42h-38.22c-.28-36.46-66.27-42.43-80.01-16.01-8.79,16.89,6.66,25.93,19.77,31.34,37.72,15.56,110.94,16.94,106.08,73.52-6.83,79.46-177.14,79.17-171.96-10.5h38.22c1.39,33.7,41.66,43.94,69.21,35.77,21.88-6.49,37.09-29.68,12.39-43.79-36.1-20.63-114.3-13.99-114.91-73.2-.6-58.48,78.83-70,121.19-51.57,20.32,8.84,39.48,31.22,38.25,54.44Z"/>
  <path class="cls-1" d="M2312.43,282.79h-42.04c-1.59-33.57-33.97-49.37-64.63-40.74-53.57,15.07-52.35,134.65,8.46,141.82,31.87,3.76,54.25-14.2,58.08-45.65h40.13c-4.43,43.64-37.6,75.13-81.25,78.32-146.19,10.71-139.48-233.39,10.96-207.75,38.84,6.62,64.17,35.84,70.29,74Z"/>
  <path class="cls-1" d="M1001.44,496.83l86.97,248.45,87.25-245.27c3.88-6.42,21.12-1.86,28.35-3.17l-99.56,284.54-27.6.34-104.08-284.89h28.67Z"/>
  <path class="cls-1" d="M2392.7,152.84v59.24h38.22v30.58h-38.22v125.17c0,1.28,5.9,8.37,7.55,9.65,9.55,7.38,21.62,4.75,32.58,2.77v32.49c-24.54,6.27-60.52,7.32-74.6-18.09-2.54-4.59-7.58-20.35-7.58-24.91v-127.09h-24.84v-30.58h24.84v-59.24h42.04Z"/>
  <path class="cls-1" d="M1725.74,152.84v59.24h40.13v30.58h-37.27l-2.87,2.87v120.4c0,.56,4.72,8.57,5.68,9.6,8.81,9.41,23.21,7.01,34.45,4.73v32.49c-35.96,10.08-76.62,2.23-80.33-41.02-3.46-40.27,2.94-85.15-.2-125.93-1.97-6.01-20.87-2.02-26.49-3.13v-30.58h26.75v-59.24h40.13Z"/>
  <path class="cls-1" d="M1635.49,579.54c145.81-17.5,146.72,217.79,7.35,207.52-115.51-8.52-115.64-194.52-7.35-207.52ZM1637.37,600.52c-79.77,10.91-79.59,169.89,16.65,165.76,94.46-4.05,92.19-180.64-16.65-165.76Z"/>
  <path class="cls-1" d="M1450.55,638.25l-22.75-.19c-5.34-34.25-39.48-41.86-69.44-37.53-28.94,4.18-48.98,33.34-20.45,53.85,27.11,19.49,110.03,21.4,117.93,59.8,18.74,91.08-162.05,99.46-162.01,6.26l22.69.24c6.66,40.87,53.26,52.87,88.2,40.88,25.38-8.71,43.07-37.76,14.35-54.55-29.3-17.13-111.86-21.63-117.41-62.23-11.92-87.17,144.82-88.08,148.9-6.52Z"/>
  <path class="cls-1" d="M1943.6,781.58h-22.93v-138.55c0-9.32-8.59-25.64-16.25-31.52-28.03-21.52-70.73-10.9-88.47,18.53-1.52,2.51-8.03,15.27-8.03,16.82v134.73h-24.84v-198.75h24.84v30.58c3.21.69,3.87-1.02,5.7-2.9,26.73-27.47,49.43-41.7,90.39-27.25,16.51,5.83,39.6,28.32,39.6,46.4v151.93Z"/>
  <path class="cls-1" d="M1911.11,210.17v38.22c-27.03-7.17-55.96,5.35-66.64,31.78-.83,2.05-4.07,10.19-4.07,11.22v119.44h-42.04v-198.75h40.13v36.31c3.42.71,3.78-.99,5.43-3.17,4.23-5.59,5.92-12.57,11.72-18.85,13.32-14.41,36.48-21.58,55.47-16.19Z"/>
  <rect class="cls-1" x="1234.59" y="582.83" width="24.84" height="198.75"/>
  <rect class="cls-1" x="1492.59" y="582.83" width="24.84" height="198.75"/>
  <rect class="cls-1" x="1234.59" y="496.83" width="24.84" height="34.4"/>
  <rect class="cls-1" x="1492.59" y="496.83" width="24.84" height="34.4"/>
</svg>